<?xml version="1.0" standalone="no"?>
<!DOCTYPE svg PUBLIC "-//W3C//DTD SVG 20010904//EN"
 "http://www.w3.org/TR/2001/REC-SVG-20010904/DTD/svg10.dtd">
<svg version="1.0" xmlns="http://www.w3.org/2000/svg"
 width="138.000000pt" height="28.000000pt" viewBox="0 0 138.000000 28.000000"
 preserveAspectRatio="xMidYMid meet">
<metadata>
Created by potrace 1.16, written by Peter Selinger 2001-2019
</metadata>
<g transform="translate(0.000000,28.000000) scale(0.100000,-0.100000)"
fill="#000000" stroke="none">
<path d="M63 260 c-87 -52 -83 -198 6 -245 56 -28 144 -14 180 29 9 11 18 13
30 6 25 -13 802 -11 818 2 13 11 18 104 7 132 -10 25 -80 21 -95 -5 l-11 -21
-24 23 c-18 17 -34 22 -71 21 -52 -2 -73 -19 -73 -59 0 -38 -19 -26 -22 15
l-3 37 -60 3 c-185 8 -271 8 -367 3 -104 -6 -107 -5 -117 17 -27 58 -135 81
-198 42z m128 -15 c35 -19 69 -70 69 -105 0 -56 -65 -120 -122 -120 -53 0
-118 66 -118 120 0 54 65 120 118 120 13 0 36 -7 53 -15z"/>
<path d="M1126 194 c-11 -29 -7 -132 7 -141 17 -11 176 -12 183 -1 3 5 11 4
19 -2 7 -6 20 -8 29 -4 20 8 24 114 4 114 -9 0 -8 4 2 10 10 6 -16 9 -79 8
-77 -1 -96 2 -106 15 -15 21 -51 22 -59 1z"/>
</g>
</svg>
